<?xml version="1.0" encoding="UTF-8" standalone="no"?><!DOCTYPE svg PUBLIC "-//W3C//DTD SVG 1.1//EN" "http://www.w3.org/Graphics/SVG/1.1/DTD/svg11.dtd"><!-- Generated by graphviz version 2.40.1 (20161225.0304)
 --><!-- Title: bot Pages: 1 --><svg xmlns="http://www.w3.org/2000/svg" xmlns:xlink="http://www.w3.org/1999/xlink" width="570pt" height="267pt" viewBox="0.00 0.00 570.07 266.51">
<g id="graph0" class="graph" transform="scale(1 1) rotate(0) translate(4 262.5137)">
<title>bot</title>
<polygon fill="#ffffff" stroke="transparent" points="-4,4 -4,-262.5137 566.0696,-262.5137 566.0696,4 -4,4"/>
<!-- initial -->
<g id="node1" class="node">
<title>initial</title>
<ellipse fill="none" stroke="#000000" cx="33.57" cy="-27.5137" rx="33.6402" ry="18"/>
<text text-anchor="middle" x="33.57" y="-23.3137" font-family="Times,serif" font-size="14.00" fill="#000000">initial</text>
</g>
<!-- gaming -->
<g id="node2" class="node">
<title>gaming</title>
<ellipse fill="none" stroke="#000000" cx="185.1207" cy="-104.5137" rx="40.0089" ry="18"/>
<text text-anchor="middle" x="185.1207" y="-100.3137" font-family="Times,serif" font-size="14.00" fill="#000000">gaming</text>
</g>
<!-- initial&#45;&gt;gaming -->
<g id="edge8" class="edge">
<title>initial-&gt;gaming</title>
<path fill="none" stroke="#000000" d="M53.5601,-42.4447C62.8846,-49.0486 74.2971,-56.6325 85.14,-62.5137 104.0245,-72.7566 125.9384,-82.2129 144.429,-89.5487"/>
<polygon fill="#000000" stroke="#000000" points="143.1639,-92.812 153.7522,-93.1845 145.7072,-86.2904 143.1639,-92.812"/>
<text text-anchor="middle" x="106.1281" y="-85.7137" font-family="Times,serif" font-size="14.00" fill="#000000"> restart </text>
</g>
<!-- gaming&#45;&gt;initial -->
<g id="edge14" class="edge">
<title>gaming-&gt;initial</title>
<path fill="none" stroke="#000000" d="M174.0463,-87.077C163.7564,-72.4449 147.044,-52.2882 127.1162,-41.7137 112.1185,-33.7552 93.9821,-29.9084 77.6865,-28.1504"/>
<polygon fill="#000000" stroke="#000000" points="77.5538,-24.6269 67.2952,-27.2746 76.9659,-31.6022 77.5538,-24.6269"/>
<text text-anchor="middle" x="106.1281" y="-45.7137" font-family="Times,serif" font-size="14.00" fill="#000000"> exit </text>
</g>
<!-- gaming&#45;&gt;gaming -->
<g id="edge1" class="edge">
<title>gaming-&gt;gaming</title>
<path fill="none" stroke="#000000" d="M181.593,-122.6664C181.0503,-132.0527 182.2262,-140.5137 185.1207,-140.5137 186.8845,-140.5137 188.0102,-137.3718 188.4977,-132.7932"/>
<polygon fill="#000000" stroke="#000000" points="191.9991,-132.7174 188.6484,-122.6664 184.9999,-132.6131 191.9991,-132.7174"/>
<text text-anchor="middle" x="185.1207" y="-144.7137" font-family="Times,serif" font-size="14.00" fill="#000000"> wrong </text>
</g>
<!-- gaming&#45;&gt;gaming -->
<g id="edge3" class="edge">
<title>gaming-&gt;gaming</title>
<path fill="none" stroke="#000000" d="M179.2583,-122.4919C176.1207,-139.7133 178.0748,-158.5137 185.1207,-158.5137 190.7904,-158.5137 193.1632,-146.34 192.2388,-132.6114"/>
<polygon fill="#000000" stroke="#000000" points="195.688,-131.9847 190.9831,-122.4919 188.7413,-132.8468 195.688,-131.9847"/>
<text text-anchor="middle" x="185.1207" y="-162.7137" font-family="Times,serif" font-size="14.00" fill="#000000"> right </text>
</g>
<!-- gaming&#45;&gt;gaming -->
<g id="edge5" class="edge">
<title>gaming-&gt;gaming</title>
<path fill="none" stroke="#000000" d="M177.818,-122.229C171.1464,-146.6279 173.5807,-176.5137 185.1207,-176.5137 195.1281,-176.5137 198.2877,-154.0392 194.5997,-132.1579"/>
<polygon fill="#000000" stroke="#000000" points="197.9834,-131.2477 192.4234,-122.229 191.1457,-132.7465 197.9834,-131.2477"/>
<text text-anchor="middle" x="185.1207" y="-180.7137" font-family="Times,serif" font-size="14.00" fill="#000000"> change </text>
</g>
<!-- gaming&#45;&gt;gaming -->
<g id="edge9" class="edge">
<title>gaming-&gt;gaming</title>
<path fill="none" stroke="#000000" d="M176.7942,-122.1841C166.1967,-153.3662 168.9723,-194.5137 185.1207,-194.5137 199.6291,-194.5137 203.3429,-161.2998 196.2623,-131.9398"/>
<polygon fill="#000000" stroke="#000000" points="199.5826,-130.8217 193.4472,-122.1841 192.857,-132.7625 199.5826,-130.8217"/>
<text text-anchor="middle" x="185.1207" y="-198.7137" font-family="Times,serif" font-size="14.00" fill="#000000"> restart </text>
</g>
<!-- hinted -->
<g id="node3" class="node">
<title>hinted</title>
<ellipse fill="none" stroke="#000000" cx="342.9449" cy="-96.5137" rx="35.3528" ry="18"/>
<text text-anchor="middle" x="342.9449" y="-92.3137" font-family="Times,serif" font-size="14.00" fill="#000000">hinted</text>
</g>
<!-- gaming&#45;&gt;hinted -->
<g id="edge7" class="edge">
<title>gaming-&gt;hinted</title>
<path fill="none" stroke="#000000" d="M214.6235,-116.9392C235.6893,-124.1638 264.6299,-130.7278 289.7689,-124.5137 297.3591,-122.6374 305.0622,-119.4604 312.1616,-115.9049"/>
<polygon fill="#000000" stroke="#000000" points="314.2698,-118.7438 321.4013,-110.9084 310.9401,-112.5865 314.2698,-118.7438"/>
<text text-anchor="middle" x="266.447" y="-130.7137" font-family="Times,serif" font-size="14.00" fill="#000000"> hint </text>
</g>
<!-- end&#45;of&#45;game -->
<g id="node4" class="node">
<title>end-of-game</title>
<ellipse fill="none" stroke="#000000" cx="501.7026" cy="-162.5137" rx="60.2344" ry="18"/>
<text text-anchor="middle" x="501.7026" y="-158.3137" font-family="Times,serif" font-size="14.00" fill="#000000">end-of-game</text>
</g>
<!-- gaming&#45;&gt;end&#45;of&#45;game -->
<g id="edge12" class="edge">
<title>gaming-&gt;end-of-game</title>
<path fill="none" stroke="#000000" d="M197.1383,-121.8602C207.7847,-136.1003 224.4973,-155.906 243.1251,-168.5137 268.5053,-185.6913 277.605,-187.095 307.7689,-192.5137 356.9206,-201.3434 413.3653,-190.2267 452.6378,-179.1103"/>
<polygon fill="#000000" stroke="#000000" points="453.6258,-182.4681 462.2374,-176.2963 451.6566,-175.7507 453.6258,-182.4681"/>
<text text-anchor="middle" x="342.9449" y="-199.7137" font-family="Times,serif" font-size="14.00" fill="#000000"> end </text>
</g>
<!-- hinted&#45;&gt;initial -->
<g id="edge15" class="edge">
<title>hinted-&gt;initial</title>
<path fill="none" stroke="#000000" d="M328.9461,-79.4832C319.1408,-68.777 305.0907,-55.6779 289.7689,-48.5137 220.6008,-16.1718 129.4508,-17.6802 76.5969,-22.2385"/>
<polygon fill="#000000" stroke="#000000" points="76.1835,-18.7618 66.5546,-23.1817 76.8381,-25.7311 76.1835,-18.7618"/>
<text text-anchor="middle" x="185.1207" y="-32.7137" font-family="Times,serif" font-size="14.00" fill="#000000"> exit </text>
</g>
<!-- hinted&#45;&gt;gaming -->
<g id="edge4" class="edge">
<title>hinted-&gt;gaming</title>
<path fill="none" stroke="#000000" d="M308.6609,-100.8573C302.3855,-101.517 295.8874,-102.1109 289.7689,-102.5137 272.2006,-103.6702 252.9402,-104.2377 235.7853,-104.4965"/>
<polygon fill="#000000" stroke="#000000" points="235.3675,-101.0011 225.4099,-104.6202 235.451,-108.0006 235.3675,-101.0011"/>
<text text-anchor="middle" x="266.447" y="-107.7137" font-family="Times,serif" font-size="14.00" fill="#000000"> right </text>
</g>
<!-- hinted&#45;&gt;gaming -->
<g id="edge6" class="edge">
<title>hinted-&gt;gaming</title>
<path fill="none" stroke="#000000" d="M313.1525,-86.6934C305.6072,-84.6313 297.4596,-82.7639 289.7689,-81.7137 269.229,-78.9086 263.4933,-77.8543 243.1251,-81.7137 236.1967,-83.0265 229.0366,-85.1485 222.2119,-87.5827"/>
<polygon fill="#000000" stroke="#000000" points="220.5936,-84.4552 212.5189,-91.3145 223.1087,-90.9878 220.5936,-84.4552"/>
<text text-anchor="middle" x="266.447" y="-85.7137" font-family="Times,serif" font-size="14.00" fill="#000000"> change </text>
</g>
<!-- hinted&#45;&gt;gaming -->
<g id="edge10" class="edge">
<title>hinted-&gt;gaming</title>
<path fill="none" stroke="#000000" d="M326.7876,-80.5145C316.9705,-71.9481 303.6765,-62.2481 289.7689,-57.7137 270.0595,-51.2875 262.6728,-50.8111 243.1251,-57.7137 229.8394,-62.405 217.3615,-71.5728 207.4078,-80.56"/>
<polygon fill="#000000" stroke="#000000" points="204.8108,-78.2006 199.9992,-87.6399 209.647,-83.2614 204.8108,-78.2006"/>
<text text-anchor="middle" x="266.447" y="-61.7137" font-family="Times,serif" font-size="14.00" fill="#000000"> restart </text>
</g>
<!-- hinted&#45;&gt;hinted -->
<g id="edge2" class="edge">
<title>hinted-&gt;hinted</title>
<path fill="none" stroke="#000000" d="M331.2497,-113.551C328.8629,-123.3716 332.7613,-132.5137 342.9449,-132.5137 349.3097,-132.5137 353.2192,-128.9425 354.6737,-123.8666"/>
<polygon fill="#000000" stroke="#000000" points="358.1727,-123.5395 354.6401,-113.551 351.1728,-123.5623 358.1727,-123.5395"/>
<text text-anchor="middle" x="342.9449" y="-136.7137" font-family="Times,serif" font-size="14.00" fill="#000000"> wrong </text>
</g>
<!-- hinted&#45;&gt;end&#45;of&#45;game -->
<g id="edge13" class="edge">
<title>hinted-&gt;end-of-game</title>
<path fill="none" stroke="#000000" d="M370.5984,-108.01C394.3595,-117.8881 429.0728,-132.3194 456.8115,-143.8512"/>
<polygon fill="#000000" stroke="#000000" points="455.7252,-147.19 466.3027,-147.7969 458.4124,-140.7263 455.7252,-147.19"/>
<text text-anchor="middle" x="409.7282" y="-133.7137" font-family="Times,serif" font-size="14.00" fill="#000000"> end </text>
</g>
<!-- end&#45;of&#45;game&#45;&gt;initial -->
<g id="edge16" class="edge">
<title>end-of-game-&gt;initial</title>
<path fill="none" stroke="#000000" d="M485.4591,-144.9296C452.5487,-110.8157 373.9417,-36.8009 289.7689,-11.7137 215.8533,10.3165 124.7792,-4.6635 73.5331,-16.6797"/>
<polygon fill="#000000" stroke="#000000" points="72.4198,-13.3482 63.5273,-19.1079 74.0707,-20.1508 72.4198,-13.3482"/>
<text text-anchor="middle" x="266.447" y="-16.7137" font-family="Times,serif" font-size="14.00" fill="#000000"> exit </text>
</g>
<!-- end&#45;of&#45;game&#45;&gt;gaming -->
<g id="edge11" class="edge">
<title>end-of-game-&gt;gaming</title>
<path fill="none" stroke="#000000" d="M446.1128,-169.6203C392.0788,-174.1926 308.7872,-174.943 243.1251,-147.5137 231.495,-142.6554 220.0528,-134.9801 210.4449,-127.4502"/>
<polygon fill="#000000" stroke="#000000" points="212.4664,-124.5814 202.5152,-120.9448 208.0265,-129.9933 212.4664,-124.5814"/>
<text text-anchor="middle" x="342.9449" y="-175.7137" font-family="Times,serif" font-size="14.00" fill="#000000"> restart </text>
</g>
</g>
</svg>